<?xml version="1.0" standalone="no"?>
<!DOCTYPE svg PUBLIC "-//W3C//DTD SVG 20010904//EN"
 "http://www.w3.org/TR/2001/REC-SVG-20010904/DTD/svg10.dtd">
<svg version="1.0" xmlns="http://www.w3.org/2000/svg"
 width="338.000000pt" height="338.000000pt" viewBox="0 0 338.000000 338.000000"
 preserveAspectRatio="xMidYMid meet">

<g transform="translate(0.000000,338.000000) scale(0.100000,-0.100000)"
fill="#000000" stroke="none">
<path d="M0 1690 l0 -1690 1690 0 1690 0 0 1690 0 1690 -1690 0 -1690 0 0
-1690z m1882 1241 c45 -16 135 -30 213 -33 11 -1 47 6 79 15 l60 17 27 -26
c49 -46 107 -175 123 -270 6 -31 23 -56 77 -114 247 -263 345 -592 270 -905
-27 -113 -36 -130 -46 -86 -4 17 -10 31 -14 31 -4 0 -13 -35 -20 -77 -37 -221
-172 -425 -373 -561 -26 -18 -51 -31 -56 -30 -6 2 -38 -29 -73 -69 -69 -78
-184 -184 -300 -278 -41 -33 -88 -75 -105 -92 -38 -40 -62 -41 -100 -6 -16 15
-69 60 -119 102 -49 41 -112 96 -140 121 -27 26 -62 58 -76 71 -15 13 -53 53
-85 89 -32 36 -62 64 -67 62 -14 -4 -125 77 -182 135 -81 81 -127 145 -174
239 -38 75 -81 220 -81 272 0 30 -16 28 -24 -3 -4 -14 -10 -25 -14 -25 -4 0
-18 46 -32 103 -57 232 -17 483 111 700 45 75 178 241 207 256 12 6 22 30 29
68 15 79 48 164 86 220 47 68 61 74 127 56 30 -9 64 -16 75 -15 70 2 166 16
200 28 105 38 298 41 397 5z"/>
<path d="M1537 2886 c-27 -7 -53 -18 -59 -24 -6 -6 -24 -8 -42 -5 -17 2 -59
-2 -93 -10 -57 -13 -67 -13 -119 5 -53 18 -57 18 -75 2 -31 -28 -78 -133 -96
-215 -15 -74 -19 -80 -89 -154 -193 -202 -285 -424 -283 -680 1 -133 6 -139
58 -71 24 31 45 55 47 54 1 -2 -2 -28 -8 -58 -14 -74 -4 -219 22 -308 24 -85
56 -152 113 -236 45 -67 165 -188 180 -183 6 2 12 13 14 26 2 13 8 31 13 40 9
15 9 15 10 -1 1 -45 142 -221 276 -343 l86 -78 -7 49 -8 49 45 -60 c66 -88
159 -200 167 -200 10 0 70 70 144 168 64 83 83 91 57 22 -9 -23 -8 -25 9 -15
32 17 224 211 274 277 26 34 56 81 67 104 l18 42 12 -41 c6 -23 13 -42 16 -42
4 0 29 19 56 42 101 84 207 257 245 398 13 47 18 102 18 201 l-1 136 40 -50
c49 -62 54 -54 55 90 2 248 -95 473 -294 683 -58 61 -63 70 -83 153 -24 95
-58 171 -90 200 -19 17 -22 17 -77 -1 -45 -15 -65 -18 -92 -10 -19 5 -65 13
-101 18 -37 5 -92 16 -122 24 -66 19 -234 20 -303 2z m282 -86 c10 -6 9 -9 -6
-14 -11 -4 -29 -16 -39 -28 -14 -15 -15 -19 -4 -15 42 16 122 38 126 35 2 -3
-14 -10 -36 -17 -22 -7 -38 -16 -35 -21 3 -4 -3 -6 -14 -3 -11 3 -24 -3 -33
-14 -7 -10 -30 -33 -50 -52 l-36 -33 -34 31 c-18 17 -36 31 -40 31 -5 0 -8 6
-8 14 0 14 -21 24 -92 46 -21 6 -38 14 -38 16 0 8 74 -8 102 -22 15 -8 30 -14
34 -14 14 0 -29 40 -50 46 -21 7 -21 7 -1 14 27 10 238 10 254 0z m-554 -75
c99 -38 160 -71 146 -79 -13 -8 -117 31 -139 51 -7 7 -29 13 -48 13 -28 0 -35
-4 -40 -25 -4 -14 -8 -24 -11 -21 -4 4 17 86 22 86 2 0 33 -11 70 -25z m931
-10 c7 -19 14 -45 14 -57 -1 -17 -5 -12 -15 17 -8 22 -15 41 -15 41 0 6 -80
-20 -80 -26 0 -4 -19 -13 -42 -19 -24 -7 -48 -17 -54 -22 -6 -5 -19 -6 -29 -3
-16 7 -16 8 1 18 17 9 195 85 202 86 2 0 10 -16 18 -35z m-598 -225 c18 -31
32 -39 32 -17 1 30 20 -21 20 -53 0 -45 17 -107 32 -116 18 -11 36 24 43 85 4
31 9 65 12 76 6 19 6 19 13 1 5 -16 9 -14 28 18 12 20 27 36 34 36 9 0 9 -3 0
-12 -21 -21 -13 -29 13 -12 63 42 210 -31 262 -129 18 -35 10 -46 -16 -23 -32
29 -95 39 -138 21 -41 -17 -58 -11 -29 11 14 9 15 14 6 14 -8 0 -38 -25 -67
-56 -47 -49 -53 -53 -54 -32 -2 55 -32 -49 -32 -114 -1 -37 -5 -64 -9 -62 -18
11 -6 -26 32 -100 43 -84 48 -101 26 -93 -7 3 -32 -6 -56 -19 -52 -30 -79 -30
-114 -3 -15 12 -38 22 -52 22 -13 0 -24 3 -24 7 0 4 19 45 42 90 23 45 37 85
32 88 -5 4 -10 39 -11 78 -1 63 -22 134 -39 134 -2 0 0 -9 6 -19 21 -40 -8
-29 -48 18 -23 27 -51 51 -63 54 -20 5 -20 5 -2 -15 18 -21 18 -21 -2 -14 -76
30 -108 28 -158 -7 -35 -24 -43 -17 -24 20 51 95 187 164 256 130 32 -16 40
-10 19 11 -9 9 -9 12 0 12 7 0 21 -13 30 -30z m-524 -68 c-27 -26 -63 -66 -81
-89 -39 -50 -103 -165 -103 -184 1 -8 10 5 22 29 23 49 36 49 19 1 -6 -18 -11
-36 -11 -42 0 -12 45 -1 93 23 20 11 37 17 37 15 0 -3 -14 -36 -31 -73 -39
-87 -74 -189 -94 -276 -18 -78 -15 -97 5 -34 14 43 14 43 21 -75 8 -127 27
-199 67 -260 l25 -38 14 33 c16 37 61 88 78 88 6 0 28 -52 49 -117 51 -153
100 -261 67 -145 -5 17 -6 32 -2 32 4 0 19 -40 35 -90 15 -49 31 -90 35 -90 4
0 13 15 19 34 23 63 36 63 78 -1 65 -101 127 -193 131 -193 1 0 -2 12 -8 26
-5 15 -8 28 -6 30 2 3 36 -27 75 -66 39 -38 76 -70 83 -70 6 0 43 32 81 70 70
70 91 82 68 40 -6 -12 -10 -24 -7 -26 4 -4 81 108 141 204 15 24 31 40 37 36
6 -3 19 -24 29 -47 16 -35 19 -37 27 -21 12 24 51 133 56 159 4 15 5 13 6 -7
0 -15 -4 -39 -10 -55 -5 -15 -6 -23 -1 -18 13 14 76 176 97 250 10 33 21 64
25 68 10 11 47 -28 71 -76 11 -21 25 -37 31 -35 6 2 24 28 39 58 30 58 49 161
50 273 l0 72 19 -40 19 -40 -6 35 c-9 57 -58 209 -97 298 -20 46 -36 85 -36
87 0 2 22 -8 50 -21 60 -29 83 -31 76 -6 -3 9 -8 31 -11 47 -5 26 -3 24 19
-15 33 -60 33 -33 0 33 -36 70 -94 148 -105 141 -5 -3 -8 -1 -7 4 5 15 -64 92
-75 85 -6 -3 -7 -1 -3 5 10 16 74 -36 133 -108 76 -92 119 -195 138 -332 l7
-48 -71 70 c-39 39 -75 70 -80 70 -5 0 1 -27 15 -60 56 -139 76 -229 81 -371
5 -122 3 -144 -18 -214 -23 -80 -76 -171 -123 -214 -24 -23 -26 -23 -26 -5 0
23 -54 139 -69 148 -6 4 -13 -5 -17 -21 -18 -83 -29 -114 -61 -178 -20 -38
-57 -101 -83 -140 -55 -80 -125 -160 -116 -131 9 28 26 199 20 205 -3 3 -7 -5
-11 -17 -11 -42 -72 -161 -125 -244 -73 -114 -168 -248 -177 -248 -10 0 -132
171 -193 270 -42 67 -95 174 -112 224 -13 39 -15 7 -6 -80 6 -49 13 -97 16
-108 10 -32 -12 -10 -77 76 -78 102 -153 244 -175 330 -9 38 -21 65 -26 62
-15 -9 -68 -126 -68 -148 0 -18 -2 -18 -26 5 -44 40 -92 123 -120 206 -25 73
-26 86 -21 218 5 146 24 234 81 375 14 33 20 60 15 60 -5 0 -41 -31 -79 -69
-39 -37 -70 -63 -70 -56 0 7 7 48 15 91 27 141 109 279 216 364 68 53 72 51
13 -8z m384 -184 c7 -7 12 -16 12 -20 0 -10 -39 -6 -59 6 -11 7 -11 10 0 17
19 12 33 11 47 -3z m510 4 c9 -6 5 -12 -13 -20 -32 -15 -51 -6 -34 14 13 16
28 18 47 6z m-578 -57 c19 -14 45 -25 59 -25 26 0 25 -1 -7 -21 -18 -12 -31
-24 -28 -26 7 -8 70 28 105 61 33 30 34 20 3 -16 -8 -10 -12 -18 -8 -18 4 0
-12 -18 -36 -40 -35 -32 -39 -38 -19 -33 35 9 20 -10 -32 -40 -50 -30 -64 -30
-95 1 -12 12 -29 22 -37 22 -11 0 -15 12 -15 48 0 34 -3 43 -10 32 -8 -12 -10
-11 -10 5 0 11 7 30 15 41 8 12 11 24 8 28 -3 3 12 6 33 6 27 0 51 -8 74 -25z
m713 -4 c18 -32 25 -79 7 -51 -7 11 -10 2 -10 -32 0 -36 -4 -48 -15 -48 -8 0
-24 -9 -35 -20 -11 -11 -31 -20 -45 -20 -28 0 -105 46 -105 63 0 7 4 7 12 -1
7 -7 16 -12 21 -12 6 0 -11 22 -35 48 -25 27 -51 59 -58 73 -11 21 -9 21 21
-7 35 -33 98 -69 105 -61 3 2 -10 14 -28 26 -32 20 -33 21 -7 21 14 0 40 11
59 25 47 35 91 33 113 -4z m-627 -190 c-9 -16 -16 -39 -16 -50 0 -25 -20 -39
-21 -14 0 10 -6 2 -13 -17 -11 -29 -14 -32 -18 -15 -5 17 -6 17 -8 -5 -1 -14
-2 -29 -1 -33 1 -5 -3 -6 -8 -2 -11 6 -4 58 12 90 14 27 81 94 85 84 2 -4 -4
-21 -12 -38z m519 -96 c5 -47 4 -48 -6 -16 -7 24 -13 31 -19 22 -5 -10 -10 -3
-16 20 -7 33 -8 33 -15 9 -6 -21 -7 -22 -8 -5 -1 11 -10 38 -21 60 -30 62 -24
64 30 10 43 -44 50 -56 55 -100z m-456 -19 c9 -10 33 -25 53 -33 20 -8 44 -25
52 -38 53 -81 -31 -167 -159 -164 l-40 1 35 10 c45 13 60 25 60 50 0 17 -5 19
-32 13 l-31 -7 22 28 22 28 -25 20 c-26 22 -46 56 -46 78 0 7 7 2 16 -10 20
-29 45 -29 43 1 -3 37 2 74 8 57 3 -8 13 -23 22 -34z m334 -19 c-4 -39 -4 -41
14 -26 10 9 24 19 30 23 23 13 -5 -47 -33 -70 l-25 -20 22 -28 22 -28 -31 7
c-24 5 -32 3 -32 -7 0 -27 27 -51 66 -58 l39 -8 -45 -1 c-102 -2 -180 46 -180
112 0 35 39 87 66 87 20 0 74 50 74 68 0 13 2 14 9 4 4 -7 6 -32 4 -55z m-128
-229 c29 -13 59 -88 37 -96 -7 -2 -12 -14 -12 -27 0 -29 -19 -43 -31 -24 -5 8
-9 9 -9 4 0 -6 5 -16 11 -22 18 -18 -39 -43 -71 -31 -30 11 -59 46 -60 71 0 9
-4 17 -10 17 -25 0 3 94 33 108 30 14 80 15 112 0z m-134 -275 c13 -16 12 -17
-3 -4 -10 7 -18 15 -18 17 0 8 8 3 21 -13z"/>
<path d="M1327 2099 c7 -7 15 -10 18 -7 3 3 -2 9 -12 12 -14 6 -15 5 -6 -5z"/>
<path d="M1306 2075 c4 -8 16 -15 27 -15 20 0 20 0 1 15 -25 19 -35 19 -28 0z"/>
<path d="M2047 2075 c-10 -7 -15 -15 -10 -18 5 -3 16 1 26 8 10 7 15 15 10 18
-5 3 -16 -1 -26 -8z"/>
<path d="M1573 1744 c-15 -16 -16 -24 -4 -24 8 0 24 30 19 35 -2 2 -9 -3 -15
-11z"/>
<path d="M1800 1730 c0 -5 5 -10 10 -10 6 0 10 5 10 10 0 6 -4 10 -10 10 -5 0
-10 -4 -10 -10z"/>
</g>
</svg>
